<mxfile host="Electron" agent="Mozilla/5.0 (Macintosh; Intel Mac OS X 10_15_7) AppleWebKit/537.36 (KHTML, like Gecko) draw.io/24.7.5 Chrome/126.0.6478.183 Electron/31.3.0 Safari/537.36" version="24.7.5" pages="2">
  <diagram name="main" id="vdV72FHW6scpRiuXRKxx">
    <mxGraphModel dx="1140" dy="707" grid="1" gridSize="10" guides="1" tooltips="1" connect="1" arrows="1" fold="1" page="1" pageScale="1" pageWidth="1100" pageHeight="850" math="0" shadow="0">
      <root>
        <mxCell id="0" />
        <mxCell id="1" parent="0" />
        <mxCell id="z_RlsAV90lugBiamIVYU-6" style="edgeStyle=orthogonalEdgeStyle;rounded=1;orthogonalLoop=1;jettySize=auto;html=1;exitX=1;exitY=0.5;exitDx=0;exitDy=0;exitPerimeter=0;strokeWidth=2;curved=0;entryX=0;entryY=0.5;entryDx=0;entryDy=0;entryPerimeter=0;" parent="1" source="z_RlsAV90lugBiamIVYU-1" target="z_RlsAV90lugBiamIVYU-8" edge="1">
          <mxGeometry relative="1" as="geometry" />
        </mxCell>
        <mxCell id="z_RlsAV90lugBiamIVYU-1" value="start" style="rhombus;whiteSpace=wrap;html=1;rounded=1;fontStyle=1;glass=0;sketch=0;fontSize=12;points=[[0,0.5,0,0,0],[0.5,0,0,0,0],[0.5,1,0,0,0],[1,0.5,0,0,0]];shadow=1;fontFamily=Helvetica;fontColor=default;" parent="1" vertex="1">
          <mxGeometry x="40" y="120" width="40" height="40" as="geometry" />
        </mxCell>
        <mxCell id="z_RlsAV90lugBiamIVYU-2" value="Delay" style="rounded=1;whiteSpace=wrap;html=1;container=1;recursiveResize=0;verticalAlign=top;arcSize=6;fontStyle=1;autosize=0;points=[];absoluteArcSize=1;shadow=1;strokeColor=#6c8ebf;fillColor=#dae8fc;fontFamily=Helvetica;fontSize=11;gradientColor=#0050EF;fontColor=default;" parent="1" vertex="1">
          <mxGeometry x="320" y="110" width="90" height="80" as="geometry">
            <mxRectangle x="-98" y="-1230" width="99" height="26" as="alternateBounds" />
          </mxGeometry>
        </mxCell>
        <mxCell id="z_RlsAV90lugBiamIVYU-3" value="" style="rounded=1;whiteSpace=wrap;html=1;sketch=0;points=[[0,0.5,0,0,0],[1,0.5,0,0,0]];arcSize=50;fontFamily=Helvetica;fontSize=11;fontColor=default;" parent="z_RlsAV90lugBiamIVYU-2" vertex="1">
          <mxGeometry x="-16.75" y="27.5" width="36.75" height="25" as="geometry" />
        </mxCell>
        <mxCell id="z_RlsAV90lugBiamIVYU-4" value="" style="rounded=1;whiteSpace=wrap;html=1;sketch=0;points=[[0,0.5,0,0,0],[1,0.5,0,0,0]];fillColor=#1ba1e2;fontColor=#ffffff;strokeColor=#006EAF;arcSize=50;fontFamily=Helvetica;fontSize=11;" parent="z_RlsAV90lugBiamIVYU-2" vertex="1">
          <mxGeometry x="70" y="27.5" width="36" height="25" as="geometry" />
        </mxCell>
        <mxCell id="z_RlsAV90lugBiamIVYU-7" value="Larson" style="rounded=1;whiteSpace=wrap;html=1;container=1;recursiveResize=0;verticalAlign=top;arcSize=6;fontStyle=1;autosize=0;points=[];absoluteArcSize=1;shadow=1;strokeColor=#6c8ebf;fillColor=#dae8fc;fontFamily=Helvetica;fontSize=11;gradientColor=#0050EF;fontColor=default;" parent="1" vertex="1">
          <mxGeometry x="160" y="100" width="90" height="100" as="geometry">
            <mxRectangle x="-98" y="-1230" width="99" height="26" as="alternateBounds" />
          </mxGeometry>
        </mxCell>
        <mxCell id="z_RlsAV90lugBiamIVYU-8" value="tick" style="rounded=1;whiteSpace=wrap;html=1;sketch=0;points=[[0,0.5,0,0,0],[1,0.5,0,0,0]];arcSize=50;fontFamily=Helvetica;fontSize=11;fontColor=default;" parent="z_RlsAV90lugBiamIVYU-7" vertex="1">
          <mxGeometry x="-16.75" y="27.5" width="36.75" height="25" as="geometry" />
        </mxCell>
        <mxCell id="9XuPy-yzw9BXAMB755ca-12" value="" style="rounded=1;whiteSpace=wrap;html=1;sketch=0;points=[[0,0.5,0,0,0],[1,0.5,0,0,0]];fillColor=#1ba1e2;fontColor=#ffffff;strokeColor=#006EAF;arcSize=50;fontFamily=Helvetica;fontSize=11;" parent="z_RlsAV90lugBiamIVYU-7" vertex="1">
          <mxGeometry x="70" y="37.5" width="36" height="25" as="geometry" />
        </mxCell>
        <mxCell id="z_RlsAV90lugBiamIVYU-11" style="edgeStyle=orthogonalEdgeStyle;rounded=1;orthogonalLoop=1;jettySize=auto;html=1;exitX=1;exitY=0.5;exitDx=0;exitDy=0;exitPerimeter=0;strokeWidth=2;curved=0;" parent="1" source="z_RlsAV90lugBiamIVYU-4" target="z_RlsAV90lugBiamIVYU-8" edge="1">
          <mxGeometry relative="1" as="geometry">
            <Array as="points">
              <mxPoint x="460" y="150" />
              <mxPoint x="460" y="220" />
              <mxPoint x="120" y="220" />
              <mxPoint x="120" y="140" />
            </Array>
          </mxGeometry>
        </mxCell>
        <mxCell id="ZWu5ie66i4GKL29yOKYd-1" style="edgeStyle=orthogonalEdgeStyle;rounded=1;orthogonalLoop=1;jettySize=auto;html=1;exitX=1;exitY=0.5;exitDx=0;exitDy=0;exitPerimeter=0;entryX=0;entryY=0.5;entryDx=0;entryDy=0;entryPerimeter=0;curved=0;strokeWidth=2;" parent="1" source="9XuPy-yzw9BXAMB755ca-12" target="z_RlsAV90lugBiamIVYU-3" edge="1">
          <mxGeometry relative="1" as="geometry" />
        </mxCell>
      </root>
    </mxGraphModel>
  </diagram>
  <diagram name="Larson" id="JZWW65h0xSYiLv_BeMSM">
    <mxGraphModel dx="1140" dy="707" grid="1" gridSize="10" guides="1" tooltips="1" connect="1" arrows="1" fold="1" page="1" pageScale="1" pageWidth="1100" pageHeight="850" math="0" shadow="0">
      <root>
        <mxCell id="q5L2Nz16qo5Y1Yb_iNLw-0" />
        <mxCell id="q5L2Nz16qo5Y1Yb_iNLw-1" parent="q5L2Nz16qo5Y1Yb_iNLw-0" />
        <mxCell id="q5L2Nz16qo5Y1Yb_iNLw-2" style="edgeStyle=orthogonalEdgeStyle;rounded=1;orthogonalLoop=1;jettySize=auto;html=1;exitX=1;exitY=0.5;exitDx=0;exitDy=0;exitPerimeter=0;strokeWidth=2;curved=0;entryX=0;entryY=0.5;entryDx=0;entryDy=0;entryPerimeter=0;" parent="q5L2Nz16qo5Y1Yb_iNLw-1" source="q5L2Nz16qo5Y1Yb_iNLw-3" target="q5L2Nz16qo5Y1Yb_iNLw-10" edge="1">
          <mxGeometry relative="1" as="geometry">
            <mxPoint x="143.25" y="140" as="targetPoint" />
          </mxGeometry>
        </mxCell>
        <mxCell id="q5L2Nz16qo5Y1Yb_iNLw-3" value="tick" style="rhombus;whiteSpace=wrap;html=1;rounded=1;fontStyle=1;glass=0;sketch=0;fontSize=12;points=[[0,0.5,0,0,0],[0.5,0,0,0,0],[0.5,1,0,0,0],[1,0.5,0,0,0]];shadow=1;fontFamily=Helvetica;fontColor=default;" parent="q5L2Nz16qo5Y1Yb_iNLw-1" vertex="1">
          <mxGeometry x="40" y="120" width="40" height="40" as="geometry" />
        </mxCell>
        <mxCell id="q5L2Nz16qo5Y1Yb_iNLw-9" value="Count" style="rounded=1;whiteSpace=wrap;html=1;container=1;recursiveResize=0;verticalAlign=top;arcSize=6;fontStyle=1;autosize=0;points=[];absoluteArcSize=1;shadow=1;strokeColor=#6c8ebf;fillColor=#dae8fc;fontFamily=Helvetica;fontSize=11;gradientColor=#0050EF;fontColor=default;" parent="q5L2Nz16qo5Y1Yb_iNLw-1" vertex="1">
          <mxGeometry x="360" y="100" width="90" height="100" as="geometry">
            <mxRectangle x="-98" y="-1230" width="99" height="26" as="alternateBounds" />
          </mxGeometry>
        </mxCell>
        <mxCell id="q5L2Nz16qo5Y1Yb_iNLw-10" value="adv" style="rounded=1;whiteSpace=wrap;html=1;sketch=0;points=[[0,0.5,0,0,0],[1,0.5,0,0,0]];arcSize=50;fontFamily=Helvetica;fontSize=11;fontColor=default;" parent="q5L2Nz16qo5Y1Yb_iNLw-9" vertex="1">
          <mxGeometry x="-16.75" y="27.5" width="36.75" height="25" as="geometry" />
        </mxCell>
        <mxCell id="q5L2Nz16qo5Y1Yb_iNLw-11" value="" style="rounded=1;whiteSpace=wrap;html=1;sketch=0;points=[[0,0.5,0,0,0],[1,0.5,0,0,0]];fillColor=#1ba1e2;fontColor=#ffffff;strokeColor=#006EAF;arcSize=50;fontFamily=Helvetica;fontSize=11;" parent="q5L2Nz16qo5Y1Yb_iNLw-9" vertex="1">
          <mxGeometry x="70" y="27.5" width="36" height="25" as="geometry" />
        </mxCell>
        <mxCell id="q5L2Nz16qo5Y1Yb_iNLw-12" value="rev" style="rounded=1;whiteSpace=wrap;html=1;sketch=0;points=[[0,0.5,0,0,0],[1,0.5,0,0,0]];arcSize=50;fontFamily=Helvetica;fontSize=11;fontColor=default;" parent="q5L2Nz16qo5Y1Yb_iNLw-9" vertex="1">
          <mxGeometry x="-16.75" y="60" width="36.75" height="25" as="geometry" />
        </mxCell>
        <mxCell id="q5L2Nz16qo5Y1Yb_iNLw-14" value="Reverser" style="rounded=1;whiteSpace=wrap;html=1;container=1;recursiveResize=0;verticalAlign=top;arcSize=6;fontStyle=1;autosize=0;points=[];absoluteArcSize=1;shadow=1;strokeColor=#6c8ebf;fillColor=#dae8fc;fontFamily=Helvetica;fontSize=11;gradientColor=#0050EF;fontColor=default;" parent="q5L2Nz16qo5Y1Yb_iNLw-1" vertex="1">
          <mxGeometry x="360" y="280" width="106.75" height="90" as="geometry">
            <mxRectangle x="-98" y="-1230" width="99" height="26" as="alternateBounds" />
          </mxGeometry>
        </mxCell>
        <mxCell id="q5L2Nz16qo5Y1Yb_iNLw-15" value="J" style="rounded=1;whiteSpace=wrap;html=1;sketch=0;points=[[0,0.5,0,0,0],[1,0.5,0,0,0]];arcSize=50;fontFamily=Helvetica;fontSize=11;fontColor=default;" parent="q5L2Nz16qo5Y1Yb_iNLw-14" vertex="1">
          <mxGeometry x="70" y="27.5" width="36.75" height="25" as="geometry" />
        </mxCell>
        <mxCell id="q5L2Nz16qo5Y1Yb_iNLw-16" value="" style="rounded=1;whiteSpace=wrap;html=1;sketch=0;points=[[0,0.5,0,0,0],[1,0.5,0,0,0]];fillColor=#1ba1e2;fontColor=#ffffff;strokeColor=#006EAF;arcSize=50;fontFamily=Helvetica;fontSize=11;" parent="q5L2Nz16qo5Y1Yb_iNLw-14" vertex="1">
          <mxGeometry x="-10" y="27.5" width="36" height="25" as="geometry" />
        </mxCell>
        <mxCell id="q5L2Nz16qo5Y1Yb_iNLw-17" value="K" style="rounded=1;whiteSpace=wrap;html=1;sketch=0;points=[[0,0.5,0,0,0],[1,0.5,0,0,0]];arcSize=50;fontFamily=Helvetica;fontSize=11;fontColor=default;" parent="q5L2Nz16qo5Y1Yb_iNLw-14" vertex="1">
          <mxGeometry x="70" y="55" width="36.75" height="25" as="geometry" />
        </mxCell>
        <mxCell id="q5L2Nz16qo5Y1Yb_iNLw-18" style="edgeStyle=orthogonalEdgeStyle;rounded=1;orthogonalLoop=1;jettySize=auto;html=1;exitX=0;exitY=0.5;exitDx=0;exitDy=0;exitPerimeter=0;entryX=0;entryY=0.5;entryDx=0;entryDy=0;entryPerimeter=0;curved=0;strokeWidth=2;" parent="q5L2Nz16qo5Y1Yb_iNLw-1" source="q5L2Nz16qo5Y1Yb_iNLw-16" target="q5L2Nz16qo5Y1Yb_iNLw-12" edge="1">
          <mxGeometry relative="1" as="geometry">
            <Array as="points">
              <mxPoint x="310" y="320" />
              <mxPoint x="310" y="173" />
            </Array>
          </mxGeometry>
        </mxCell>
        <mxCell id="q5L2Nz16qo5Y1Yb_iNLw-19" value="Decode" style="rounded=1;whiteSpace=wrap;html=1;container=1;recursiveResize=0;verticalAlign=top;arcSize=6;fontStyle=1;autosize=0;points=[];absoluteArcSize=1;shadow=1;strokeColor=#6c8ebf;fillColor=#dae8fc;fontFamily=Helvetica;fontSize=11;gradientColor=#0050EF;fontColor=default;" parent="q5L2Nz16qo5Y1Yb_iNLw-1" vertex="1">
          <mxGeometry x="530" y="100" width="480" height="127.5" as="geometry">
            <mxRectangle x="-98" y="-1230" width="99" height="26" as="alternateBounds" />
          </mxGeometry>
        </mxCell>
        <mxCell id="q5L2Nz16qo5Y1Yb_iNLw-20" value="N" style="rounded=1;whiteSpace=wrap;html=1;sketch=0;points=[[0,0.5,0,0,0],[1,0.5,0,0,0]];arcSize=50;fontFamily=Helvetica;fontSize=11;fontColor=default;" parent="q5L2Nz16qo5Y1Yb_iNLw-19" vertex="1">
          <mxGeometry x="-16.75" y="27.5" width="36.75" height="25" as="geometry" />
        </mxCell>
        <mxCell id="q5L2Nz16qo5Y1Yb_iNLw-21" value="8" style="rounded=1;whiteSpace=wrap;html=1;sketch=0;points=[[0,0.5,0,0,0],[1,0.5,0,0,0]];fillColor=#1ba1e2;fontColor=#ffffff;strokeColor=#006EAF;arcSize=50;fontFamily=Helvetica;fontSize=11;" parent="q5L2Nz16qo5Y1Yb_iNLw-19" vertex="1">
          <mxGeometry x="388" y="100" width="36" height="25" as="geometry" />
        </mxCell>
        <mxCell id="q5L2Nz16qo5Y1Yb_iNLw-22" value="9" style="rounded=1;whiteSpace=wrap;html=1;sketch=0;points=[[0,0.5,0,0,0],[1,0.5,0,0,0]];fillColor=#1ba1e2;fontColor=#ffffff;strokeColor=#006EAF;arcSize=50;fontFamily=Helvetica;fontSize=11;" parent="q5L2Nz16qo5Y1Yb_iNLw-19" vertex="1">
          <mxGeometry x="430" y="100" width="36" height="25" as="geometry" />
        </mxCell>
        <mxCell id="q5L2Nz16qo5Y1Yb_iNLw-23" value="7" style="rounded=1;whiteSpace=wrap;html=1;sketch=0;points=[[0,0.5,0,0,0],[1,0.5,0,0,0]];fillColor=#1ba1e2;fontColor=#ffffff;strokeColor=#006EAF;arcSize=50;fontFamily=Helvetica;fontSize=11;" parent="q5L2Nz16qo5Y1Yb_iNLw-19" vertex="1">
          <mxGeometry x="340" y="100" width="36" height="25" as="geometry" />
        </mxCell>
        <mxCell id="q5L2Nz16qo5Y1Yb_iNLw-24" value="6" style="rounded=1;whiteSpace=wrap;html=1;sketch=0;points=[[0,0.5,0,0,0],[1,0.5,0,0,0]];fillColor=#1ba1e2;fontColor=#ffffff;strokeColor=#006EAF;arcSize=50;fontFamily=Helvetica;fontSize=11;" parent="q5L2Nz16qo5Y1Yb_iNLw-19" vertex="1">
          <mxGeometry x="300" y="100" width="36" height="25" as="geometry" />
        </mxCell>
        <mxCell id="q5L2Nz16qo5Y1Yb_iNLw-25" value="5" style="rounded=1;whiteSpace=wrap;html=1;sketch=0;points=[[0,0.5,0,0,0],[1,0.5,0,0,0]];fillColor=#1ba1e2;fontColor=#ffffff;strokeColor=#006EAF;arcSize=50;fontFamily=Helvetica;fontSize=11;" parent="q5L2Nz16qo5Y1Yb_iNLw-19" vertex="1">
          <mxGeometry x="254" y="100" width="36" height="25" as="geometry" />
        </mxCell>
        <mxCell id="q5L2Nz16qo5Y1Yb_iNLw-26" value="4" style="rounded=1;whiteSpace=wrap;html=1;sketch=0;points=[[0,0.5,0,0,0],[1,0.5,0,0,0]];fillColor=#1ba1e2;fontColor=#ffffff;strokeColor=#006EAF;arcSize=50;fontFamily=Helvetica;fontSize=11;" parent="q5L2Nz16qo5Y1Yb_iNLw-19" vertex="1">
          <mxGeometry x="210" y="100" width="36" height="25" as="geometry" />
        </mxCell>
        <mxCell id="q5L2Nz16qo5Y1Yb_iNLw-27" value="3" style="rounded=1;whiteSpace=wrap;html=1;sketch=0;points=[[0,0.5,0,0,0],[1,0.5,0,0,0]];fillColor=#1ba1e2;fontColor=#ffffff;strokeColor=#006EAF;arcSize=50;fontFamily=Helvetica;fontSize=11;" parent="q5L2Nz16qo5Y1Yb_iNLw-19" vertex="1">
          <mxGeometry x="164" y="102.5" width="36" height="25" as="geometry" />
        </mxCell>
        <mxCell id="q5L2Nz16qo5Y1Yb_iNLw-28" value="2" style="rounded=1;whiteSpace=wrap;html=1;sketch=0;points=[[0,0.5,0,0,0],[1,0.5,0,0,0]];fillColor=#1ba1e2;fontColor=#ffffff;strokeColor=#006EAF;arcSize=50;fontFamily=Helvetica;fontSize=11;" parent="q5L2Nz16qo5Y1Yb_iNLw-19" vertex="1">
          <mxGeometry x="120" y="102.5" width="36" height="25" as="geometry" />
        </mxCell>
        <mxCell id="q5L2Nz16qo5Y1Yb_iNLw-29" value="1" style="rounded=1;whiteSpace=wrap;html=1;sketch=0;points=[[0,0.5,0,0,0],[1,0.5,0,0,0]];fillColor=#1ba1e2;fontColor=#ffffff;strokeColor=#006EAF;arcSize=50;fontFamily=Helvetica;fontSize=11;" parent="q5L2Nz16qo5Y1Yb_iNLw-19" vertex="1">
          <mxGeometry x="74" y="102.5" width="36" height="25" as="geometry" />
        </mxCell>
        <mxCell id="q5L2Nz16qo5Y1Yb_iNLw-30" value="0" style="rounded=1;whiteSpace=wrap;html=1;sketch=0;points=[[0,0.5,0,0,0],[1,0.5,0,0,0]];fillColor=#1ba1e2;fontColor=#ffffff;strokeColor=#006EAF;arcSize=50;fontFamily=Helvetica;fontSize=11;" parent="q5L2Nz16qo5Y1Yb_iNLw-19" vertex="1">
          <mxGeometry x="27" y="102.5" width="36" height="25" as="geometry" />
        </mxCell>
        <mxCell id="KNWpLI5fQBY09mSrUuYS-0" value="done" style="rounded=1;whiteSpace=wrap;html=1;sketch=0;points=[[0,0.5,0,0,0],[1,0.5,0,0,0]];fillColor=#1ba1e2;fontColor=#ffffff;strokeColor=#006EAF;arcSize=50;fontFamily=Helvetica;fontSize=11;" parent="q5L2Nz16qo5Y1Yb_iNLw-19" vertex="1">
          <mxGeometry x="460" y="40" width="36" height="25" as="geometry" />
        </mxCell>
        <mxCell id="q5L2Nz16qo5Y1Yb_iNLw-31" style="edgeStyle=orthogonalEdgeStyle;shape=connector;curved=0;rounded=1;orthogonalLoop=1;jettySize=auto;html=1;exitX=1;exitY=0.5;exitDx=0;exitDy=0;exitPerimeter=0;entryX=0;entryY=0.5;entryDx=0;entryDy=0;entryPerimeter=0;strokeColor=default;strokeWidth=2;align=center;verticalAlign=middle;fontFamily=Helvetica;fontSize=11;fontColor=default;labelBackgroundColor=default;endArrow=classic;" parent="q5L2Nz16qo5Y1Yb_iNLw-1" source="q5L2Nz16qo5Y1Yb_iNLw-11" target="q5L2Nz16qo5Y1Yb_iNLw-20" edge="1">
          <mxGeometry relative="1" as="geometry" />
        </mxCell>
        <mxCell id="q5L2Nz16qo5Y1Yb_iNLw-32" style="edgeStyle=orthogonalEdgeStyle;shape=connector;curved=0;rounded=1;orthogonalLoop=1;jettySize=auto;html=1;entryX=1;entryY=0.5;entryDx=0;entryDy=0;entryPerimeter=0;strokeColor=default;strokeWidth=2;align=center;verticalAlign=middle;fontFamily=Helvetica;fontSize=11;fontColor=default;labelBackgroundColor=default;endArrow=classic;exitX=0.528;exitY=0.92;exitDx=0;exitDy=0;exitPerimeter=0;" parent="q5L2Nz16qo5Y1Yb_iNLw-1" source="q5L2Nz16qo5Y1Yb_iNLw-30" target="q5L2Nz16qo5Y1Yb_iNLw-15" edge="1">
          <mxGeometry relative="1" as="geometry">
            <Array as="points">
              <mxPoint x="576" y="320" />
            </Array>
          </mxGeometry>
        </mxCell>
        <mxCell id="q5L2Nz16qo5Y1Yb_iNLw-33" style="edgeStyle=orthogonalEdgeStyle;shape=connector;curved=0;rounded=1;orthogonalLoop=1;jettySize=auto;html=1;entryX=1;entryY=0.5;entryDx=0;entryDy=0;entryPerimeter=0;strokeColor=default;strokeWidth=2;align=center;verticalAlign=middle;fontFamily=Helvetica;fontSize=11;fontColor=default;labelBackgroundColor=default;endArrow=classic;exitX=0.528;exitY=1.04;exitDx=0;exitDy=0;exitPerimeter=0;" parent="q5L2Nz16qo5Y1Yb_iNLw-1" source="q5L2Nz16qo5Y1Yb_iNLw-22" target="q5L2Nz16qo5Y1Yb_iNLw-17" edge="1">
          <mxGeometry relative="1" as="geometry" />
        </mxCell>
        <mxCell id="q5L2Nz16qo5Y1Yb_iNLw-34" value="👀" style="rounded=1;sketch=0;container=1;recursiveResize=0;verticalAlign=bottom;arcSize=6;fontStyle=0;autosize=0;points=[];absoluteArcSize=1;shadow=0;strokeColor=#d79b00;fillColor=#FFFFFF;fontFamily=Helvetica;fontSize=11;dashed=1;opacity=30;align=right;gradientColor=#EA6B66;fontColor=default;labelBackgroundColor=none;" parent="q5L2Nz16qo5Y1Yb_iNLw-1" vertex="1">
          <mxGeometry x="1050" y="400" width="40" height="50" as="geometry">
            <mxRectangle x="-98" y="-1230" width="99" height="26" as="alternateBounds" />
          </mxGeometry>
        </mxCell>
        <mxCell id="q5L2Nz16qo5Y1Yb_iNLw-35" value="" style="rounded=1;whiteSpace=wrap;html=1;sketch=0;points=[[0,0.5,0,0,0],[1,0.5,0,0,0]];arcSize=50;fontFamily=Helvetica;fontSize=11;fontColor=default;dashed=1;textOpacity=50;opacity=30;fontStyle=0;labelBackgroundColor=default;" parent="q5L2Nz16qo5Y1Yb_iNLw-34" vertex="1">
          <mxGeometry x="-12" y="12.5" width="39.25" height="25" as="geometry" />
        </mxCell>
        <mxCell id="q5L2Nz16qo5Y1Yb_iNLw-36" style="edgeStyle=orthogonalEdgeStyle;shape=connector;curved=0;rounded=1;orthogonalLoop=1;jettySize=auto;html=1;entryX=0;entryY=0.5;entryDx=0;entryDy=0;entryPerimeter=0;strokeColor=default;strokeWidth=1;align=center;verticalAlign=middle;fontFamily=Helvetica;fontSize=11;fontColor=default;labelBackgroundColor=default;endArrow=classic;exitX=0.528;exitY=0.88;exitDx=0;exitDy=0;exitPerimeter=0;dashed=1;dashPattern=1 4;" parent="q5L2Nz16qo5Y1Yb_iNLw-1" source="q5L2Nz16qo5Y1Yb_iNLw-22" target="q5L2Nz16qo5Y1Yb_iNLw-35" edge="1">
          <mxGeometry relative="1" as="geometry">
            <Array as="points">
              <mxPoint x="979" y="425" />
            </Array>
          </mxGeometry>
        </mxCell>
        <mxCell id="q5L2Nz16qo5Y1Yb_iNLw-37" value="👀" style="rounded=1;sketch=0;container=1;recursiveResize=0;verticalAlign=bottom;arcSize=6;fontStyle=0;autosize=0;points=[];absoluteArcSize=1;shadow=0;strokeColor=#d79b00;fillColor=#FFFFFF;fontFamily=Helvetica;fontSize=11;dashed=1;opacity=30;align=right;gradientColor=#EA6B66;fontColor=default;labelBackgroundColor=none;" parent="q5L2Nz16qo5Y1Yb_iNLw-1" vertex="1">
          <mxGeometry x="1000" y="440" width="40" height="50" as="geometry">
            <mxRectangle x="-98" y="-1230" width="99" height="26" as="alternateBounds" />
          </mxGeometry>
        </mxCell>
        <mxCell id="q5L2Nz16qo5Y1Yb_iNLw-38" value="" style="rounded=1;whiteSpace=wrap;html=1;sketch=0;points=[[0,0.5,0,0,0],[1,0.5,0,0,0]];arcSize=50;fontFamily=Helvetica;fontSize=11;fontColor=default;dashed=1;textOpacity=50;opacity=30;fontStyle=0;labelBackgroundColor=default;" parent="q5L2Nz16qo5Y1Yb_iNLw-37" vertex="1">
          <mxGeometry x="-12" y="12.5" width="39.25" height="25" as="geometry" />
        </mxCell>
        <mxCell id="q5L2Nz16qo5Y1Yb_iNLw-39" value="👀" style="rounded=1;sketch=0;container=1;recursiveResize=0;verticalAlign=bottom;arcSize=6;fontStyle=0;autosize=0;points=[];absoluteArcSize=1;shadow=0;strokeColor=#d79b00;fillColor=#FFFFFF;fontFamily=Helvetica;fontSize=11;dashed=1;opacity=30;align=right;gradientColor=#EA6B66;fontColor=default;labelBackgroundColor=none;" parent="q5L2Nz16qo5Y1Yb_iNLw-1" vertex="1">
          <mxGeometry x="950" y="480" width="40" height="50" as="geometry">
            <mxRectangle x="-98" y="-1230" width="99" height="26" as="alternateBounds" />
          </mxGeometry>
        </mxCell>
        <mxCell id="q5L2Nz16qo5Y1Yb_iNLw-40" value="" style="rounded=1;whiteSpace=wrap;html=1;sketch=0;points=[[0,0.5,0,0,0],[1,0.5,0,0,0]];arcSize=50;fontFamily=Helvetica;fontSize=11;fontColor=default;dashed=1;textOpacity=50;opacity=30;fontStyle=0;labelBackgroundColor=default;" parent="q5L2Nz16qo5Y1Yb_iNLw-39" vertex="1">
          <mxGeometry x="-12" y="12.5" width="39.25" height="25" as="geometry" />
        </mxCell>
        <mxCell id="q5L2Nz16qo5Y1Yb_iNLw-41" value="👀" style="rounded=1;sketch=0;container=1;recursiveResize=0;verticalAlign=bottom;arcSize=6;fontStyle=0;autosize=0;points=[];absoluteArcSize=1;shadow=0;strokeColor=#d79b00;fillColor=#FFFFFF;fontFamily=Helvetica;fontSize=11;dashed=1;opacity=30;align=right;gradientColor=#EA6B66;fontColor=default;labelBackgroundColor=none;" parent="q5L2Nz16qo5Y1Yb_iNLw-1" vertex="1">
          <mxGeometry x="900" y="520" width="40" height="50" as="geometry">
            <mxRectangle x="-98" y="-1230" width="99" height="26" as="alternateBounds" />
          </mxGeometry>
        </mxCell>
        <mxCell id="q5L2Nz16qo5Y1Yb_iNLw-42" value="" style="rounded=1;whiteSpace=wrap;html=1;sketch=0;points=[[0,0.5,0,0,0],[1,0.5,0,0,0]];arcSize=50;fontFamily=Helvetica;fontSize=11;fontColor=default;dashed=1;textOpacity=50;opacity=30;fontStyle=0;labelBackgroundColor=default;" parent="q5L2Nz16qo5Y1Yb_iNLw-41" vertex="1">
          <mxGeometry x="-12" y="12.5" width="39.25" height="25" as="geometry" />
        </mxCell>
        <mxCell id="q5L2Nz16qo5Y1Yb_iNLw-43" value="👀" style="rounded=1;sketch=0;container=1;recursiveResize=0;verticalAlign=bottom;arcSize=6;fontStyle=0;autosize=0;points=[];absoluteArcSize=1;shadow=0;strokeColor=#d79b00;fillColor=#FFFFFF;fontFamily=Helvetica;fontSize=11;dashed=1;opacity=30;align=right;gradientColor=#EA6B66;fontColor=default;labelBackgroundColor=none;" parent="q5L2Nz16qo5Y1Yb_iNLw-1" vertex="1">
          <mxGeometry x="840" y="550" width="40" height="50" as="geometry">
            <mxRectangle x="-98" y="-1230" width="99" height="26" as="alternateBounds" />
          </mxGeometry>
        </mxCell>
        <mxCell id="q5L2Nz16qo5Y1Yb_iNLw-44" value="" style="rounded=1;whiteSpace=wrap;html=1;sketch=0;points=[[0,0.5,0,0,0],[1,0.5,0,0,0]];arcSize=50;fontFamily=Helvetica;fontSize=11;fontColor=default;dashed=1;textOpacity=50;opacity=30;fontStyle=0;labelBackgroundColor=default;" parent="q5L2Nz16qo5Y1Yb_iNLw-43" vertex="1">
          <mxGeometry x="-12" y="12.5" width="39.25" height="25" as="geometry" />
        </mxCell>
        <mxCell id="q5L2Nz16qo5Y1Yb_iNLw-45" value="👀" style="rounded=1;sketch=0;container=1;recursiveResize=0;verticalAlign=bottom;arcSize=6;fontStyle=0;autosize=0;points=[];absoluteArcSize=1;shadow=0;strokeColor=#d79b00;fillColor=#FFFFFF;fontFamily=Helvetica;fontSize=11;dashed=1;opacity=30;align=left;gradientColor=#EA6B66;fontColor=default;labelBackgroundColor=none;" parent="q5L2Nz16qo5Y1Yb_iNLw-1" vertex="1">
          <mxGeometry x="490" y="400" width="40" height="50" as="geometry">
            <mxRectangle x="-98" y="-1230" width="99" height="26" as="alternateBounds" />
          </mxGeometry>
        </mxCell>
        <mxCell id="q5L2Nz16qo5Y1Yb_iNLw-46" value="" style="rounded=1;whiteSpace=wrap;html=1;sketch=0;points=[[0,0.5,0,0,0],[1,0.5,0,0,0]];arcSize=50;fontFamily=Helvetica;fontSize=11;fontColor=default;dashed=1;textOpacity=50;opacity=30;fontStyle=0;labelBackgroundColor=default;" parent="q5L2Nz16qo5Y1Yb_iNLw-45" vertex="1">
          <mxGeometry x="10.75" y="13" width="39.25" height="25" as="geometry" />
        </mxCell>
        <mxCell id="q5L2Nz16qo5Y1Yb_iNLw-47" style="edgeStyle=orthogonalEdgeStyle;shape=connector;curved=0;rounded=1;orthogonalLoop=1;jettySize=auto;html=1;entryX=0;entryY=0.5;entryDx=0;entryDy=0;entryPerimeter=0;dashed=1;dashPattern=1 4;strokeColor=default;strokeWidth=1;align=center;verticalAlign=middle;fontFamily=Helvetica;fontSize=11;fontColor=default;labelBackgroundColor=default;endArrow=classic;" parent="q5L2Nz16qo5Y1Yb_iNLw-1" source="q5L2Nz16qo5Y1Yb_iNLw-21" target="q5L2Nz16qo5Y1Yb_iNLw-38" edge="1">
          <mxGeometry relative="1" as="geometry">
            <Array as="points">
              <mxPoint x="940" y="465" />
            </Array>
          </mxGeometry>
        </mxCell>
        <mxCell id="q5L2Nz16qo5Y1Yb_iNLw-48" style="edgeStyle=orthogonalEdgeStyle;shape=connector;curved=0;rounded=1;orthogonalLoop=1;jettySize=auto;html=1;entryX=0;entryY=0.5;entryDx=0;entryDy=0;entryPerimeter=0;dashed=1;dashPattern=1 4;strokeColor=default;strokeWidth=1;align=center;verticalAlign=middle;fontFamily=Helvetica;fontSize=11;fontColor=default;labelBackgroundColor=default;endArrow=classic;" parent="q5L2Nz16qo5Y1Yb_iNLw-1" source="q5L2Nz16qo5Y1Yb_iNLw-23" target="q5L2Nz16qo5Y1Yb_iNLw-40" edge="1">
          <mxGeometry relative="1" as="geometry">
            <Array as="points">
              <mxPoint x="890" y="505" />
            </Array>
          </mxGeometry>
        </mxCell>
        <mxCell id="q5L2Nz16qo5Y1Yb_iNLw-49" style="edgeStyle=orthogonalEdgeStyle;shape=connector;curved=0;rounded=1;orthogonalLoop=1;jettySize=auto;html=1;entryX=0;entryY=0.5;entryDx=0;entryDy=0;entryPerimeter=0;dashed=1;dashPattern=1 4;strokeColor=default;strokeWidth=1;align=center;verticalAlign=middle;fontFamily=Helvetica;fontSize=11;fontColor=default;labelBackgroundColor=default;endArrow=classic;" parent="q5L2Nz16qo5Y1Yb_iNLw-1" source="q5L2Nz16qo5Y1Yb_iNLw-24" target="q5L2Nz16qo5Y1Yb_iNLw-42" edge="1">
          <mxGeometry relative="1" as="geometry">
            <Array as="points">
              <mxPoint x="850" y="545" />
            </Array>
          </mxGeometry>
        </mxCell>
        <mxCell id="q5L2Nz16qo5Y1Yb_iNLw-50" style="edgeStyle=orthogonalEdgeStyle;shape=connector;curved=0;rounded=1;orthogonalLoop=1;jettySize=auto;html=1;entryX=0;entryY=0.5;entryDx=0;entryDy=0;entryPerimeter=0;dashed=1;dashPattern=1 4;strokeColor=default;strokeWidth=1;align=center;verticalAlign=middle;fontFamily=Helvetica;fontSize=11;fontColor=default;labelBackgroundColor=default;endArrow=classic;" parent="q5L2Nz16qo5Y1Yb_iNLw-1" source="q5L2Nz16qo5Y1Yb_iNLw-25" target="q5L2Nz16qo5Y1Yb_iNLw-44" edge="1">
          <mxGeometry relative="1" as="geometry">
            <Array as="points">
              <mxPoint x="800" y="575" />
            </Array>
          </mxGeometry>
        </mxCell>
        <mxCell id="q5L2Nz16qo5Y1Yb_iNLw-51" value="👀" style="rounded=1;sketch=0;container=1;recursiveResize=0;verticalAlign=bottom;arcSize=6;fontStyle=0;autosize=0;points=[];absoluteArcSize=1;shadow=0;strokeColor=#d79b00;fillColor=#FFFFFF;fontFamily=Helvetica;fontSize=11;dashed=1;opacity=30;align=left;gradientColor=#EA6B66;fontColor=default;labelBackgroundColor=none;" parent="q5L2Nz16qo5Y1Yb_iNLw-1" vertex="1">
          <mxGeometry x="540" y="440" width="40" height="50" as="geometry">
            <mxRectangle x="-98" y="-1230" width="99" height="26" as="alternateBounds" />
          </mxGeometry>
        </mxCell>
        <mxCell id="q5L2Nz16qo5Y1Yb_iNLw-52" value="" style="rounded=1;whiteSpace=wrap;html=1;sketch=0;points=[[0,0.5,0,0,0],[1,0.5,0,0,0]];arcSize=50;fontFamily=Helvetica;fontSize=11;fontColor=default;dashed=1;textOpacity=50;opacity=30;fontStyle=0;labelBackgroundColor=default;" parent="q5L2Nz16qo5Y1Yb_iNLw-51" vertex="1">
          <mxGeometry x="10.75" y="13" width="39.25" height="25" as="geometry" />
        </mxCell>
        <mxCell id="q5L2Nz16qo5Y1Yb_iNLw-53" value="👀" style="rounded=1;sketch=0;container=1;recursiveResize=0;verticalAlign=bottom;arcSize=6;fontStyle=0;autosize=0;points=[];absoluteArcSize=1;shadow=0;strokeColor=#d79b00;fillColor=#FFFFFF;fontFamily=Helvetica;fontSize=11;dashed=1;opacity=30;align=left;gradientColor=#EA6B66;fontColor=default;labelBackgroundColor=none;" parent="q5L2Nz16qo5Y1Yb_iNLw-1" vertex="1">
          <mxGeometry x="586" y="470" width="40" height="50" as="geometry">
            <mxRectangle x="-98" y="-1230" width="99" height="26" as="alternateBounds" />
          </mxGeometry>
        </mxCell>
        <mxCell id="q5L2Nz16qo5Y1Yb_iNLw-54" value="" style="rounded=1;whiteSpace=wrap;html=1;sketch=0;points=[[0,0.5,0,0,0],[1,0.5,0,0,0]];arcSize=50;fontFamily=Helvetica;fontSize=11;fontColor=default;dashed=1;textOpacity=50;opacity=30;fontStyle=0;labelBackgroundColor=default;" parent="q5L2Nz16qo5Y1Yb_iNLw-53" vertex="1">
          <mxGeometry x="10.75" y="13" width="39.25" height="25" as="geometry" />
        </mxCell>
        <mxCell id="q5L2Nz16qo5Y1Yb_iNLw-55" value="👀" style="rounded=1;sketch=0;container=1;recursiveResize=0;verticalAlign=bottom;arcSize=6;fontStyle=0;autosize=0;points=[];absoluteArcSize=1;shadow=0;strokeColor=#d79b00;fillColor=#FFFFFF;fontFamily=Helvetica;fontSize=11;dashed=1;opacity=30;align=left;gradientColor=#EA6B66;fontColor=default;labelBackgroundColor=none;" parent="q5L2Nz16qo5Y1Yb_iNLw-1" vertex="1">
          <mxGeometry x="636" y="510" width="40" height="50" as="geometry">
            <mxRectangle x="-98" y="-1230" width="99" height="26" as="alternateBounds" />
          </mxGeometry>
        </mxCell>
        <mxCell id="q5L2Nz16qo5Y1Yb_iNLw-56" value="" style="rounded=1;whiteSpace=wrap;html=1;sketch=0;points=[[0,0.5,0,0,0],[1,0.5,0,0,0]];arcSize=50;fontFamily=Helvetica;fontSize=11;fontColor=default;dashed=1;textOpacity=50;opacity=30;fontStyle=0;labelBackgroundColor=default;" parent="q5L2Nz16qo5Y1Yb_iNLw-55" vertex="1">
          <mxGeometry x="10.75" y="13" width="39.25" height="25" as="geometry" />
        </mxCell>
        <mxCell id="q5L2Nz16qo5Y1Yb_iNLw-57" value="👀" style="rounded=1;sketch=0;container=1;recursiveResize=0;verticalAlign=bottom;arcSize=6;fontStyle=0;autosize=0;points=[];absoluteArcSize=1;shadow=0;strokeColor=#d79b00;fillColor=#FFFFFF;fontFamily=Helvetica;fontSize=11;dashed=1;opacity=30;align=left;gradientColor=#EA6B66;fontColor=default;labelBackgroundColor=none;" parent="q5L2Nz16qo5Y1Yb_iNLw-1" vertex="1">
          <mxGeometry x="686" y="550" width="40" height="50" as="geometry">
            <mxRectangle x="-98" y="-1230" width="99" height="26" as="alternateBounds" />
          </mxGeometry>
        </mxCell>
        <mxCell id="q5L2Nz16qo5Y1Yb_iNLw-58" value="" style="rounded=1;whiteSpace=wrap;html=1;sketch=0;points=[[0,0.5,0,0,0],[1,0.5,0,0,0]];arcSize=50;fontFamily=Helvetica;fontSize=11;fontColor=default;dashed=1;textOpacity=50;opacity=30;fontStyle=0;labelBackgroundColor=default;" parent="q5L2Nz16qo5Y1Yb_iNLw-57" vertex="1">
          <mxGeometry x="10.75" y="13" width="39.25" height="25" as="geometry" />
        </mxCell>
        <mxCell id="q5L2Nz16qo5Y1Yb_iNLw-59" style="edgeStyle=orthogonalEdgeStyle;shape=connector;curved=0;rounded=1;orthogonalLoop=1;jettySize=auto;html=1;entryX=1;entryY=0.5;entryDx=0;entryDy=0;entryPerimeter=0;dashed=1;dashPattern=1 4;strokeColor=default;strokeWidth=1;align=center;verticalAlign=middle;fontFamily=Helvetica;fontSize=11;fontColor=default;labelBackgroundColor=default;endArrow=classic;" parent="q5L2Nz16qo5Y1Yb_iNLw-1" source="q5L2Nz16qo5Y1Yb_iNLw-30" target="q5L2Nz16qo5Y1Yb_iNLw-46" edge="1">
          <mxGeometry relative="1" as="geometry">
            <Array as="points">
              <mxPoint x="575" y="426" />
            </Array>
          </mxGeometry>
        </mxCell>
        <mxCell id="q5L2Nz16qo5Y1Yb_iNLw-60" style="edgeStyle=orthogonalEdgeStyle;shape=connector;curved=0;rounded=1;orthogonalLoop=1;jettySize=auto;html=1;dashed=1;dashPattern=1 4;strokeColor=default;strokeWidth=1;align=center;verticalAlign=middle;fontFamily=Helvetica;fontSize=11;fontColor=default;labelBackgroundColor=default;endArrow=classic;entryX=1;entryY=0.5;entryDx=0;entryDy=0;entryPerimeter=0;" parent="q5L2Nz16qo5Y1Yb_iNLw-1" source="q5L2Nz16qo5Y1Yb_iNLw-29" target="q5L2Nz16qo5Y1Yb_iNLw-52" edge="1">
          <mxGeometry relative="1" as="geometry">
            <Array as="points">
              <mxPoint x="620" y="466" />
              <mxPoint x="610" y="466" />
            </Array>
            <mxPoint x="610" y="430" as="targetPoint" />
          </mxGeometry>
        </mxCell>
        <mxCell id="q5L2Nz16qo5Y1Yb_iNLw-61" style="edgeStyle=orthogonalEdgeStyle;shape=connector;curved=0;rounded=1;orthogonalLoop=1;jettySize=auto;html=1;entryX=1;entryY=0.5;entryDx=0;entryDy=0;entryPerimeter=0;dashed=1;dashPattern=1 4;strokeColor=default;strokeWidth=1;align=center;verticalAlign=middle;fontFamily=Helvetica;fontSize=11;fontColor=default;labelBackgroundColor=default;endArrow=classic;" parent="q5L2Nz16qo5Y1Yb_iNLw-1" source="q5L2Nz16qo5Y1Yb_iNLw-28" target="q5L2Nz16qo5Y1Yb_iNLw-54" edge="1">
          <mxGeometry relative="1" as="geometry">
            <Array as="points">
              <mxPoint x="670" y="496" />
            </Array>
          </mxGeometry>
        </mxCell>
        <mxCell id="q5L2Nz16qo5Y1Yb_iNLw-62" style="edgeStyle=orthogonalEdgeStyle;shape=connector;curved=0;rounded=1;orthogonalLoop=1;jettySize=auto;html=1;entryX=1;entryY=0.5;entryDx=0;entryDy=0;entryPerimeter=0;dashed=1;dashPattern=1 4;strokeColor=default;strokeWidth=1;align=center;verticalAlign=middle;fontFamily=Helvetica;fontSize=11;fontColor=default;labelBackgroundColor=default;endArrow=classic;" parent="q5L2Nz16qo5Y1Yb_iNLw-1" source="q5L2Nz16qo5Y1Yb_iNLw-27" target="q5L2Nz16qo5Y1Yb_iNLw-56" edge="1">
          <mxGeometry relative="1" as="geometry">
            <Array as="points">
              <mxPoint x="710" y="536" />
            </Array>
          </mxGeometry>
        </mxCell>
        <mxCell id="q5L2Nz16qo5Y1Yb_iNLw-63" style="edgeStyle=orthogonalEdgeStyle;shape=connector;curved=0;rounded=1;orthogonalLoop=1;jettySize=auto;html=1;entryX=1;entryY=0.5;entryDx=0;entryDy=0;entryPerimeter=0;dashed=1;dashPattern=1 4;strokeColor=default;strokeWidth=1;align=center;verticalAlign=middle;fontFamily=Helvetica;fontSize=11;fontColor=default;labelBackgroundColor=default;endArrow=classic;" parent="q5L2Nz16qo5Y1Yb_iNLw-1" source="q5L2Nz16qo5Y1Yb_iNLw-26" target="q5L2Nz16qo5Y1Yb_iNLw-58" edge="1">
          <mxGeometry relative="1" as="geometry">
            <Array as="points">
              <mxPoint x="760" y="576" />
            </Array>
          </mxGeometry>
        </mxCell>
        <mxCell id="KNWpLI5fQBY09mSrUuYS-1" value="" style="rhombus;whiteSpace=wrap;html=1;rounded=1;fontStyle=1;glass=0;sketch=0;fontSize=12;points=[[0,0.5,0,0,0],[0.5,0,0,0,0],[0.5,1,0,0,0],[1,0.5,0,0,0]];shadow=1;fillColor=#0050ef;fontColor=#ffffff;strokeColor=#001DBC;fontFamily=Helvetica;strokeWidth=2;" parent="q5L2Nz16qo5Y1Yb_iNLw-1" vertex="1">
          <mxGeometry x="1090" y="132.5" width="40" height="40" as="geometry" />
        </mxCell>
        <mxCell id="KNWpLI5fQBY09mSrUuYS-2" style="edgeStyle=orthogonalEdgeStyle;rounded=1;orthogonalLoop=1;jettySize=auto;html=1;exitX=1;exitY=0.5;exitDx=0;exitDy=0;exitPerimeter=0;strokeWidth=2;curved=0;" parent="q5L2Nz16qo5Y1Yb_iNLw-1" source="KNWpLI5fQBY09mSrUuYS-0" target="KNWpLI5fQBY09mSrUuYS-1" edge="1">
          <mxGeometry relative="1" as="geometry" />
        </mxCell>
      </root>
    </mxGraphModel>
  </diagram>
</mxfile>
